<svg width="16" height="16" viewBox="0 0 16 16" fill="none" xmlns="http://www.w3.org/2000/svg">
<path fill-rule="evenodd" clip-rule="evenodd" d="M12.1064 0.426752C12.9481 0.344133 13.7536 0.719737 14.5167 1.48283C15.2798 2.24593 15.6554 3.05142 15.5728 3.8931C15.494 4.69544 15.0129 5.34057 14.5167 5.83683L13.7744 6.57907C13.7675 6.58629 13.7604 6.59335 13.7532 6.60026L9.26334 11.0902L9.25464 11.0989L9.25457 11.0988C9.08105 11.2667 8.86176 11.4072 8.65732 11.5099C8.45455 11.6119 8.20614 11.707 7.95907 11.7423L5.95241 12.029L5.94859 12.0295L5.94859 12.0295C5.38817 12.1066 4.83315 11.9549 4.43792 11.5612C4.04166 11.1666 3.88828 10.6105 3.97073 10.0458L3.97096 10.0442L4.25687 8.04285L4.25707 8.04146C4.2921 7.79194 4.38661 7.542 4.48956 7.33719C4.5928 7.13178 4.73566 6.90985 4.90935 6.73617L9.40039 2.24512C9.40657 2.23872 9.41287 2.23242 9.41929 2.22622L10.1627 1.48283C10.6589 0.986572 11.3041 0.50551 12.1064 0.426752ZM9.67239 4.09444L5.97001 7.79683C5.94369 7.82314 5.88655 7.89788 5.82979 8.01081C5.77293 8.12395 5.7476 8.21346 5.74248 8.25015L5.74214 8.25256L5.74214 8.25256L5.45547 10.2592L5.45506 10.2621C5.43136 10.4235 5.48139 10.4835 5.49643 10.4984C5.51282 10.5147 5.57742 10.566 5.74246 10.5437L5.74409 10.5435L7.74694 10.2574C7.77988 10.2527 7.86813 10.2278 7.9837 10.1697C8.09431 10.1141 8.17363 10.0564 8.20846 10.0237L11.9061 6.3261C10.9595 5.81519 10.1823 5.03912 9.67239 4.09444ZM13.0322 5.19996C12.0112 4.79019 11.2044 3.98279 10.7988 2.96806L11.2233 2.54349C11.6337 2.13309 11.9686 1.94749 12.2529 1.91958C12.4979 1.89553 12.8858 1.97326 13.456 2.54349C14.0262 3.11373 14.104 3.50158 14.0799 3.74656C14.052 4.03089 13.8664 4.36576 13.456 4.77617L13.0322 5.19996ZM1.88601 1.88617C2.84548 0.926697 4.25904 0.583163 5.99967 0.583163H7.33301C7.74722 0.583163 8.08301 0.918949 8.08301 1.33316C8.08301 1.74738 7.74722 2.08316 7.33301 2.08316H5.99967C4.40698 2.08316 3.4872 2.4063 2.94667 2.94683C2.40614 3.48736 2.08301 4.40714 2.08301 5.99983V9.99983C2.08301 11.5925 2.40614 12.5123 2.94667 13.0528C3.4872 13.5934 4.40698 13.9165 5.99967 13.9165H9.99967C11.5924 13.9165 12.5121 13.5934 13.0527 13.0528C13.5932 12.5123 13.9163 11.5925 13.9163 9.99983V8.6665C13.9163 8.25228 14.2521 7.9165 14.6663 7.9165C15.0806 7.9165 15.4163 8.25228 15.4163 8.6665V9.99983C15.4163 11.7405 15.0728 13.154 14.1133 14.1135C13.1539 15.073 11.7403 15.4165 9.99967 15.4165H5.99967C4.25904 15.4165 2.84548 15.073 1.88601 14.1135C0.926542 13.154 0.583008 11.7405 0.583008 9.99983V5.99983C0.583008 4.25919 0.926542 2.84563 1.88601 1.88617Z" fill="#F8FAFC"/>
</svg>
